<svg fill="#a40d38" height="800" width="800" xmlns="http://www.w3.org/2000/svg" viewBox="0 0 329.039 329.039"><path d="M328.307 226.785a2.496 2.496 0 00-2.826-.497c-22.006 10.286-46.545 15.723-70.963 15.723-44.739 0-86.799-17.422-118.433-49.056C86.413 143.283 73.017 67.17 102.751 3.558A2.5 2.5 0 0099.428.235C81.267 8.724 64.814 20.274 50.525 34.563 17.943 67.144 0 110.463 0 156.539c0 46.076 17.943 89.395 50.524 121.975 32.58 32.582 75.899 50.525 121.976 50.525 46.076 0 89.395-17.943 121.976-50.525 14.29-14.289 25.839-30.743 34.328-48.903a2.5 2.5 0 00-.497-2.826z"/><path d="M167.174 159.365a2.498 2.498 0 004.267 1.768c12.417-12.417 24.907-18.713 37.123-18.713 12.216 0 24.706 6.296 37.123 18.713a2.493 2.493 0 001.768.732h.011c1.391.045 2.509-1.116 2.509-2.5 0-.785-.362-1.486-.928-1.944-24.802-24.918-24.744-49.15.176-74.07a2.493 2.493 0 00.732-1.768 2.498 2.498 0 00-4.267-1.768c-12.417 12.416-24.907 18.713-37.123 18.713-12.216 0-24.706-6.296-37.123-18.713a2.498 2.498 0 00-4.267 1.768c0 .64.244 1.28.732 1.768 24.979 24.98 24.979 49.266 0 74.247a2.49 2.49 0 00-.733 1.767z"/></svg>